<?xml version="1.0" encoding="utf-8"?>
<!-- Generator: Adobe Illustrator 27.5.0, SVG Export Plug-In . SVG Version: 6.00 Build 0)  -->
<svg version="1.1" id="Layer_1" xmlns="http://www.w3.org/2000/svg" xmlns:xlink="http://www.w3.org/1999/xlink" x="0px" y="0px"
	 viewBox="0 0 30 30" style="enable-background:new 0 0 30 30;" xml:space="preserve">
<style type="text/css">
	.st0{fill:#595959;}
	.st1{opacity:0.18;fill:#595959;}
</style>
<g>
	<g>
		<path class="st0" d="M11.8,6.2c0.7,0,1.2,0.5,1.2,1.2V12c0,0.7-0.5,1.2-1.2,1.2H7.2C6.5,13.2,6,12.6,6,12V7.4
			c0-0.7,0.5-1.2,1.2-1.2H11.8 M11.8,5.2H7.2C6,5.2,5,6.2,5,7.4V12c0,1.2,1,2.2,2.2,2.2h4.6c1.2,0,2.2-1,2.2-2.2V7.4
			C14,6.2,13,5.2,11.8,5.2L11.8,5.2z"/>
		<path class="st0" d="M22.8,6.2c0.7,0,1.2,0.5,1.2,1.2V12c0,0.7-0.5,1.2-1.2,1.2h-4.6c-0.7,0-1.2-0.5-1.2-1.2V7.4
			c0-0.7,0.5-1.2,1.2-1.2H22.8 M22.8,5.2h-4.6c-1.2,0-2.2,1-2.2,2.2V12c0,1.2,1,2.2,2.2,2.2h4.6c1.2,0,2.2-1,2.2-2.2V7.4
			C25,6.2,24,5.2,22.8,5.2L22.8,5.2z"/>
		<path class="st0" d="M11.8,16.8c0.7,0,1.2,0.5,1.2,1.2v4.6c0,0.7-0.5,1.2-1.2,1.2H7.2c-0.7,0-1.2-0.5-1.2-1.2V18
			c0-0.7,0.5-1.2,1.2-1.2H11.8 M11.8,15.8H7.2C6,15.8,5,16.8,5,18v4.6c0,1.2,1,2.2,2.2,2.2h4.6c1.2,0,2.2-1,2.2-2.2V18
			C14,16.8,13,15.8,11.8,15.8L11.8,15.8z"/>
		<path class="st0" d="M20.5,16.8c1.9,0,3.5,1.6,3.5,3.5s-1.6,3.5-3.5,3.5c-1.9,0-3.5-1.6-3.5-3.5S18.6,16.8,20.5,16.8 M20.5,15.8
			L20.5,15.8c-2.5,0-4.5,2-4.5,4.5s2,4.5,4.5,4.5h0c2.5,0,4.5-2,4.5-4.5S23,15.8,20.5,15.8L20.5,15.8z"/>
	</g>
	<ellipse class="st1" cx="21.8" cy="20.3" rx="2.7" ry="3.7"/>
	<path class="st1" d="M9.6,6.1c0.6,0.5,1,1.3,1,2v3.1c0,0.8-0.4,1.5-1,2h4.1V6.1H9.6z"/>
	<path class="st1" d="M9.6,16.7c0.6,0.5,1,1.3,1,2v3.1c0,0.8-0.4,1.5-1,2h4.1v-7.2H9.6z"/>
	<path class="st1" d="M20.5,6.1c0.6,0.5,1,1.3,1,2v3.1c0,0.8-0.4,1.5-1,2h4.1V6.1H20.5z"/>
</g>
</svg>
