<?xml version="1.0" encoding="utf-8"?>
<!-- Generator: Adobe Illustrator 27.5.0, SVG Export Plug-In . SVG Version: 6.00 Build 0)  -->
<svg version="1.1" id="Layer_1" xmlns="http://www.w3.org/2000/svg" xmlns:xlink="http://www.w3.org/1999/xlink" x="0px" y="0px"
	 viewBox="0 0 30 30" style="enable-background:new 0 0 30 30;" xml:space="preserve">
<style type="text/css">
	.st0{opacity:0.18;enable-background:new    ;}
	.st1{fill:#595959;}
</style>
<g>
	<g class="st0">
		<path class="st1" d="M24.9,16.8l-6.2-3c0,0,1.2-1.2,0.9-3.6C19.4,8,17,6.4,19.4,6.8C23.6,7.4,26.8,16.3,24.9,16.8z"/>
	</g>
	<g>
		<g>
			<path class="st1" d="M15.2,20.2c-0.1,0-0.1,0-0.2,0c-0.3-0.1-0.4-0.4-0.3-0.6l1.9-6.1c0.1-0.3,0.4-0.4,0.6-0.3
				c0.3,0.1,0.4,0.4,0.3,0.6l-1.9,6.1C15.6,20.1,15.4,20.2,15.2,20.2z"/>
		</g>
		<g>
			<path class="st1" d="M19.6,6.7c-0.1,0-0.1,0-0.2,0c-0.3-0.1-0.4-0.4-0.3-0.6l0.5-1.3c0.1-0.3,0.4-0.4,0.6-0.3
				c0.3,0.1,0.4,0.4,0.3,0.6l-0.5,1.3C20,6.6,19.8,6.7,19.6,6.7z"/>
		</g>
		<g>
			<path class="st1" d="M24.7,17.3c-0.3,0-0.6-0.1-0.8-0.3c-4.7-3.5-12.5-4.8-14.8-5.1c-0.4,0-0.7-0.3-0.8-0.6
				c-0.2-0.3-0.2-0.7,0-0.9c1.7-3,4.7-4.8,8-4.8c5.2,0,9.5,4.5,9.5,10.1c0,0.2,0,0.4,0,0.6c0,0.4-0.3,0.7-0.7,0.8
				C25,17.3,24.8,17.3,24.7,17.3z M9.1,10.9C9.2,10.9,9.2,11,9.1,10.9c2.4,0.3,10.4,1.7,15.3,5.3c0.1,0.1,0.2,0.1,0.3,0.1
				c0-0.1,0-0.3,0-0.5c0-5-3.8-9.1-8.5-9.1C13.4,6.7,10.7,8.3,9.1,10.9C9.1,10.9,9.1,10.9,9.1,10.9z"/>
		</g>
		<g>
			<path class="st1" d="M21.1,15.3c0,0-0.1,0-0.1,0c-0.3-0.1-0.4-0.3-0.4-0.6c0.3-1,1.5-6.2-1.4-7.4c-0.1,0-0.1,0-0.2,0
				c-3.2,0.1-5.1,3.2-5.3,4.8c0,0.3-0.3,0.5-0.5,0.4c-0.3,0-0.5-0.3-0.4-0.5C13,10.1,15,6.3,19,6.2c0.2,0,0.4,0,0.6,0.1
				c2.9,1.2,2.9,5.3,2,8.6C21.5,15.2,21.3,15.3,21.1,15.3z"/>
		</g>
		<g>
			<path class="st1" d="M5.2,9.8c-1.3,0-2.4-1.1-2.4-2.4c0-1.3,1.1-2.4,2.4-2.4c1.3,0,2.4,1.1,2.4,2.4C7.5,8.7,6.5,9.8,5.2,9.8z
				 M5.2,6.1c-0.8,0-1.4,0.6-1.4,1.4s0.6,1.4,1.4,1.4s1.4-0.6,1.4-1.4S5.9,6.1,5.2,6.1z"/>
		</g>
		<g>
			<path class="st1" d="M25.7,25.1C25.7,25.1,25.7,25.1,25.7,25.1l-20,0c-0.5,0-0.9-0.2-1.2-0.6c-0.3-0.4-0.4-0.8-0.3-1.3
				c1-4.2,6.6-6,11.4-6c5.1,0,10.6,1.9,11.6,6.1c0.1,0.4,0,0.9-0.3,1.3C26.6,24.9,26.1,25.1,25.7,25.1z M15.5,18.1
				c-4.4,0-9.5,1.7-10.4,5.3c0,0.2,0,0.4,0.1,0.4c0.1,0.1,0.3,0.2,0.5,0.2l20,0l0,0c0.2,0,0.4-0.1,0.5-0.2c0.1-0.1,0.1-0.2,0.1-0.4
				C25.3,19.8,20.2,18.1,15.5,18.1z"/>
		</g>
	</g>
	<g class="st0">
		<path class="st1" d="M12.5,17.9c0,0-2.6,5.2,3.1,6.1s6.1,0.6,6.1,0.6l4.7-0.2c0,0,0.8-1.8,0-2.2C25.6,21.7,23.9,16.9,12.5,17.9z"
			/>
	</g>
</g>
</svg>
