<?xml version="1.0" encoding="utf-8"?>
<!-- Generator: Adobe Illustrator 27.5.0, SVG Export Plug-In . SVG Version: 6.00 Build 0)  -->
<svg version="1.1" id="Layer_1" xmlns="http://www.w3.org/2000/svg" xmlns:xlink="http://www.w3.org/1999/xlink" x="0px" y="0px"
	 viewBox="0 0 30 30" style="enable-background:new 0 0 30 30;" xml:space="preserve">
<style type="text/css">
	.st0{fill:#595959;}
	.st1{opacity:0.18;fill:#595959;enable-background:new    ;}
</style>
<g>
	<path class="st0" d="M9.6,13.7C9.6,12.5,9,11.5,8,11c-0.5-0.2-1.2-0.3-2.1-0.3H3v7.2l0,0v1.7h2.1v0h0v-2.8h1
		C8.7,16.8,9.6,15.4,9.6,13.7z M6.1,14.8h-1v-2.1H6c1,0,1.4,0.3,1.4,1C7.4,14.5,7,14.8,6.1,14.8z"/>
	<polygon class="st0" points="9.6,10.7 9.6,19.6 12.4,19.6 12.4,19.6 13.6,17.6 11.8,17.6 11.8,10.7 	"/>
	<path class="st0" d="M21.2,19.6v-4.1v-2.3v-2.5h-3.1l-3.6,6.1l-0.3,0.4l0,0l-1.4,2.3h2.6l0.8-1.3h2.8v1.3H21.2z M17.2,16.5h-0.1
		l2-3v0.3V16v0.5H17.2z"/>
	<polygon class="st0" points="24.8,10.7 24.8,12.3 24.8,14.6 24.8,15.4 23.3,13.3 23,12.7 23,12.7 21.6,10.7 21.6,13.1 21.6,14.4 
		22.1,15.2 22.2,15.2 25.1,19.6 27,19.6 27,14 27,11.7 27,10.7 	"/>
	<g>
		<path class="st0" d="M6.6,9.7c0.2,0,0.4-0.1,0.5-0.3c0.3-0.5,0.7-1,1.2-1.4c0.9-0.9,2-1.6,3.2-2.1c1.2-0.5,2.5-0.7,3.7-0.7
			c2.5,0.1,4.8,1.1,6.6,2.8c0.4,0.4,0.8,0.9,1.1,1.3c0.1,0.2,0.3,0.3,0.5,0.3c0.2,0,0.4-0.1,0.5-0.3c0.1-0.2,0.1-0.5,0-0.6
			C23.5,8.1,23,7.5,22.5,7c-1.9-1.9-4.5-2.9-7.2-3c-3-0.1-5.9,1-8,3.2c-0.5,0.5-0.9,1-1.3,1.5C5.9,8.9,5.9,9.1,6,9.3
			C6.1,9.5,6.4,9.7,6.6,9.7z"/>
		<path class="st0" d="M23.4,20.4c-0.2,0-0.4,0.1-0.5,0.3c-0.3,0.4-0.7,0.9-1.1,1.3c-1.8,1.8-4.2,2.8-6.8,2.8s-5-1-6.8-2.8
			c-0.4-0.4-0.7-0.8-1.1-1.3c-0.1-0.2-0.3-0.3-0.5-0.3c-0.2,0-0.4,0.1-0.5,0.3C6,21,6,21.2,6.1,21.4c0.4,0.5,0.8,1,1.3,1.5
			c1,1,2.2,1.8,3.5,2.3c1.3,0.5,2.7,0.8,4,0.8h0.1c2.9,0,5.6-1.1,7.6-3.2c0.4-0.4,0.8-0.9,1.2-1.4c0.1-0.2,0.2-0.4,0-0.6
			C23.8,20.6,23.6,20.4,23.4,20.4z"/>
	</g>
</g>
<ellipse class="st1" cx="19.2" cy="15.2" rx="5.6" ry="10"/>
</svg>
